solid OpenSCAD_Model
  facet normal -1 0 0
    outer loop
      vertex -14 -25 0
      vertex -14 -25 73
      vertex -14 25 0
    endloop
  endfacet
  facet normal -1 0 0
    outer loop
      vertex -14 25 0
      vertex -14 -25 73
      vertex -14 25 73
    endloop
  endfacet
  facet normal 0 -1 0
    outer loop
      vertex -14 -25 73
      vertex -14 -25 0
      vertex -11 -25 0
    endloop
  endfacet
  facet normal 0 -1 0
    outer loop
      vertex -11 -25 73
      vertex -14 -25 73
      vertex -11 -25 0
    endloop
  endfacet
  facet normal 0 0 -1
    outer loop
      vertex -14 -25 0
      vertex -14 25 0
      vertex -11 -25 0
    endloop
  endfacet
  facet normal 0 0 -1
    outer loop
      vertex -11 -9 0
      vertex -14 25 0
      vertex -11 25 0
    endloop
  endfacet
  facet normal 0 0 -1
    outer loop
      vertex -11 -25 0
      vertex -14 25 0
      vertex -11 -12 0
    endloop
  endfacet
  facet normal 0 0 -1
    outer loop
      vertex 11 -9 0
      vertex 11 2 0
      vertex 14 2 0
    endloop
  endfacet
  facet normal 0 0 -1
    outer loop
      vertex 11 -9 0
      vertex 14 2 0
      vertex 14 -25 0
    endloop
  endfacet
  facet normal 0 0 -1
    outer loop
      vertex 11 -12 0
      vertex 14 -25 0
      vertex 11 -25 0
    endloop
  endfacet
  facet normal 0 0 -1
    outer loop
      vertex 11 -9 0
      vertex 14 -25 0
      vertex 11 -12 0
    endloop
  endfacet
  facet normal 0 0 -1
    outer loop
      vertex -11 -9 0
      vertex 11 -9 0
      vertex -11 -12 0
    endloop
  endfacet
  facet normal 0 0 -1
    outer loop
      vertex -11 -9 0
      vertex -11 -12 0
      vertex -14 25 0
    endloop
  endfacet
  facet normal 0 0 -1
    outer loop
      vertex -11 -12 0
      vertex 11 -9 0
      vertex 11 -12 0
    endloop
  endfacet
  facet normal 0 1 0
    outer loop
      vertex -14 25 0
      vertex -14 25 73
      vertex -11 25 0
    endloop
  endfacet
  facet normal 0 1 0
    outer loop
      vertex -11 25 0
      vertex -14 25 73
      vertex -11 25 73
    endloop
  endfacet
  facet normal 0 0 1
    outer loop
      vertex -14 25 73
      vertex -14 -25 73
      vertex -11 -25 73
    endloop
  endfacet
  facet normal 0 0 1
    outer loop
      vertex -11 25 73
      vertex -14 25 73
      vertex -11 -25 73
    endloop
  endfacet
  facet normal 1 0 0
    outer loop
      vertex -11 25 73
      vertex -11 -12 43
      vertex -11 -9 43
    endloop
  endfacet
  facet normal 1 0 0
    outer loop
      vertex -11 -12 0
      vertex -11 -12 43
      vertex -11 -25 73
    endloop
  endfacet
  facet normal 1 0 0
    outer loop
      vertex -11 -9 0
      vertex -11 25 0
      vertex -11 -9 43
    endloop
  endfacet
  facet normal 1 0 0
    outer loop
      vertex -11 25 0
      vertex -11 25 73
      vertex -11 -9 43
    endloop
  endfacet
  facet normal 1 0 0
    outer loop
      vertex -11 25 73
      vertex -11 -25 73
      vertex -11 -12 43
    endloop
  endfacet
  facet normal 1 0 0
    outer loop
      vertex -11 -25 73
      vertex -11 -25 0
      vertex -11 -12 0
    endloop
  endfacet
  facet normal 0 -1 0
    outer loop
      vertex -11 -12 43
      vertex -11 -12 0
      vertex 11 -12 0
    endloop
  endfacet
  facet normal 0 -1 0
    outer loop
      vertex -8 -12 43
      vertex -11 -12 43
      vertex 11 -12 0
    endloop
  endfacet
  facet normal 0 -1 0
    outer loop
      vertex 8 -12 43
      vertex -8 -12 43
      vertex 11 -12 0
    endloop
  endfacet
  facet normal 0 -1 0
    outer loop
      vertex 11 -12 43
      vertex 8 -12 43
      vertex 11 -12 0
    endloop
  endfacet
  facet normal 0 -1 0
    outer loop
      vertex 8 -12 73
      vertex -8 -12 43
      vertex 8 -12 43
    endloop
  endfacet
  facet normal 0 -1 0
    outer loop
      vertex -8 -12 73
      vertex -8 -12 43
      vertex 8 -12 73
    endloop
  endfacet
  facet normal -1 0 0
    outer loop
      vertex 11 -25 0
      vertex 11 -25 73
      vertex 11 -12 0
    endloop
  endfacet
  facet normal -1 0 0
    outer loop
      vertex 11 -9 43
      vertex 11 -25 73
      vertex 11 2 73
    endloop
  endfacet
  facet normal -1 0 0
    outer loop
      vertex 11 -9 0
      vertex 11 2 73
      vertex 11 2 0
    endloop
  endfacet
  facet normal -1 0 0
    outer loop
      vertex 11 -12 43
      vertex 11 -25 73
      vertex 11 -9 43
    endloop
  endfacet
  facet normal -1 0 0
    outer loop
      vertex 11 -12 0
      vertex 11 -25 73
      vertex 11 -12 43
    endloop
  endfacet
  facet normal -1 0 0
    outer loop
      vertex 11 -9 43
      vertex 11 2 73
      vertex 11 -9 0
    endloop
  endfacet
  facet normal 0 -1 0
    outer loop
      vertex 11 -25 73
      vertex 11 -25 0
      vertex 14 -25 0
    endloop
  endfacet
  facet normal 0 -1 0
    outer loop
      vertex 14 -25 73
      vertex 11 -25 73
      vertex 14 -25 0
    endloop
  endfacet
  facet normal 1 0 0
    outer loop
      vertex 14 -25 73
      vertex 14 -25 0
      vertex 14 2 0
    endloop
  endfacet
  facet normal 1 0 0
    outer loop
      vertex 14 2 73
      vertex 14 -25 73
      vertex 14 2 0
    endloop
  endfacet
  facet normal 0 1 0
    outer loop
      vertex 11 2 0
      vertex 11 2 73
      vertex 14 2 0
    endloop
  endfacet
  facet normal 0 1 0
    outer loop
      vertex 14 2 0
      vertex 11 2 73
      vertex 14 2 73
    endloop
  endfacet
  facet normal 0 1 0
    outer loop
      vertex -11 -9 0
      vertex -11 -9 43
      vertex 11 -9 0
    endloop
  endfacet
  facet normal 0 1 0
    outer loop
      vertex 11 -9 0
      vertex -11 -9 43
      vertex -8 -9 43
    endloop
  endfacet
  facet normal 0 1 0
    outer loop
      vertex 11 -9 0
      vertex -8 -9 43
      vertex -8 -9 73
    endloop
  endfacet
  facet normal 0 1 0
    outer loop
      vertex 8 -9 43
      vertex -8 -9 73
      vertex 8 -9 73
    endloop
  endfacet
  facet normal 0 1 0
    outer loop
      vertex 11 -9 0
      vertex -8 -9 73
      vertex 8 -9 43
    endloop
  endfacet
  facet normal 0 1 0
    outer loop
      vertex 11 -9 43
      vertex 11 -9 0
      vertex 8 -9 43
    endloop
  endfacet
  facet normal 0 0 1
    outer loop
      vertex -11 -9 43
      vertex -11 -12 43
      vertex -8 -12 43
    endloop
  endfacet
  facet normal 0 0 1
    outer loop
      vertex -8 -9 43
      vertex -11 -9 43
      vertex -8 -12 43
    endloop
  endfacet
  facet normal -1 0 0
    outer loop
      vertex -8 -12 43
      vertex -8 -12 73
      vertex -8 -9 43
    endloop
  endfacet
  facet normal -1 0 0
    outer loop
      vertex -8 -9 43
      vertex -8 -12 73
      vertex -8 -9 73
    endloop
  endfacet
  facet normal 0 0 1
    outer loop
      vertex -8 -9 73
      vertex -8 -12 73
      vertex 8 -12 73
    endloop
  endfacet
  facet normal 0 0 1
    outer loop
      vertex 8 -9 73
      vertex -8 -9 73
      vertex 8 -12 73
    endloop
  endfacet
  facet normal 1 0 0
    outer loop
      vertex 8 -12 73
      vertex 8 -12 43
      vertex 8 -9 43
    endloop
  endfacet
  facet normal 1 0 0
    outer loop
      vertex 8 -9 73
      vertex 8 -12 73
      vertex 8 -9 43
    endloop
  endfacet
  facet normal 0 0 1
    outer loop
      vertex 8 -9 43
      vertex 8 -12 43
      vertex 11 -12 43
    endloop
  endfacet
  facet normal 0 0 1
    outer loop
      vertex 11 -9 43
      vertex 8 -9 43
      vertex 11 -12 43
    endloop
  endfacet
  facet normal 0 0 1
    outer loop
      vertex 11 2 73
      vertex 11 -25 73
      vertex 14 -25 73
    endloop
  endfacet
  facet normal 0 0 1
    outer loop
      vertex 14 2 73
      vertex 11 2 73
      vertex 14 -25 73
    endloop
  endfacet
endsolid OpenSCAD_Model
